<svg width="60" height="60" viewBox="0 0 60 60" fill="none" xmlns="http://www.w3.org/2000/svg">
<rect width="60" height="60" rx="18.0645" fill="black"/>
<g clip-path="url(#clip0)">
<path d="M35.8355 45.9307H27.7328C25.1637 45.9307 22.7321 44.798 21.0614 42.8232C19.3973 40.8562 18.6696 38.2637 19.0645 35.7105C19.8709 30.4979 20.7438 26.7384 21.6587 24.5366C22.2484 23.1178 23.6138 22.201 25.1374 22.201H34.4152C35.2225 22.201 35.8769 22.8629 35.8769 23.6794C35.8769 24.4959 35.2225 25.1579 34.4152 25.1579H25.1374C24.7937 25.1579 24.486 25.3638 24.3537 25.6823C23.542 27.6357 22.7118 31.2615 21.9527 36.1676C21.69 37.866 22.1747 39.5911 23.2826 40.9006C24.3971 42.218 26.0191 42.9736 27.7328 42.9736H35.8355C37.5486 42.9736 39.1701 42.2183 40.2842 40.9012C41.393 39.5904 41.878 37.8631 41.6147 36.1624C40.8775 31.3985 39.4427 26.5841 38.6532 24.1383C38.4815 23.6063 38.6214 23.0218 39.0148 22.6282L39.9314 21.7111C41.0119 20.4819 42.6085 19.918 44.2154 20.2022C45.8359 20.4886 47.1565 21.5849 47.7477 23.1349L47.7695 23.1928C48.3429 24.739 48.8324 27.8256 49.0163 29.0809C49.1346 29.8886 48.5831 30.6404 47.7846 30.7601C46.9858 30.8795 46.2428 30.3219 46.1245 29.5142C45.7754 27.1307 45.3569 25.1066 45.0324 24.2316L45.0203 24.1993C44.7053 23.3736 44.0006 23.1659 43.7123 23.115C43.0964 23.0062 42.5088 23.2173 42.1002 23.6942C42.0757 23.7228 42.0501 23.7504 42.0236 23.7769L41.7088 24.0919C42.5517 26.7932 43.8144 31.2563 44.5029 35.7049C44.8986 38.2606 44.1705 40.8552 42.5055 42.8235C40.8353 44.7983 38.4041 45.9307 35.8355 45.9307ZM17.8251 20.205C17.8251 16.7921 14.964 15.1186 13.4512 14.7106L13.4508 14.7119C13.3306 14.6795 13.2049 14.6606 13.0746 14.6606C12.2673 14.6606 11.6129 15.3225 11.6129 16.1391C11.6129 16.8238 12.0737 17.3982 12.6984 17.5663L12.698 17.5676C12.698 17.5676 13.3195 17.7497 13.9071 18.2128C14.5763 18.7404 14.9017 19.3921 14.9017 20.205C14.9017 20.6717 14.633 21.7624 14.3732 22.8173C13.8905 24.7766 13.2898 27.2152 13.2939 29.5221C13.2969 31.3304 13.7005 32.8509 14.4932 34.0416C14.7755 34.4656 15.2369 34.6945 15.7069 34.6944C15.9878 34.6944 16.2717 34.6127 16.5221 34.4421C17.1917 33.986 17.369 33.0672 16.918 32.3899C16.4551 31.6946 16.2193 30.728 16.2172 29.5169C16.2139 27.5755 16.7661 25.3336 17.2099 23.5323C17.5536 22.1368 17.8251 21.0346 17.8251 20.205ZM38.3717 17.8238C36.8158 16.0354 35.0667 14.9141 33.2459 14.5222V13.1822C33.2459 12.3656 32.5915 11.7037 31.7842 11.7037C30.9769 11.7037 30.3225 12.3656 30.3225 13.1822V14.5222C28.5017 14.9141 26.7525 16.0354 25.1966 17.8238C24.6634 18.4367 24.7223 19.371 25.3283 19.9104C25.9344 20.4499 26.858 20.3903 27.3913 19.7772C28.8087 18.1481 30.2867 17.322 31.7842 17.322C33.2817 17.322 34.7597 18.1481 36.177 19.7772C36.466 20.1093 36.8694 20.279 37.2749 20.279C37.6178 20.279 37.9623 20.1575 38.24 19.9104C38.846 19.371 38.905 18.4367 38.3717 17.8238Z" fill="white"/>
</g>
<defs>
<clipPath id="clip0">
<rect width="37.4194" height="36.129" fill="white" transform="translate(11.6129 11.6129)"/>
</clipPath>
</defs>
</svg>
